<?xml version="1.0" encoding="UTF-8"?>
<svg id="Layer_2" xmlns="http://www.w3.org/2000/svg" version="1.1" viewBox="0 0 978 188.5">
  <!-- Generator: Adobe Illustrator 30.1.0, SVG Export Plug-In . SVG Version: 2.1.1 Build 136)  -->
  <defs>
    <style>
      .st0 {
        fill: #fff;
      }

      .st1 {
        fill: #004680;
      }
    </style>
  </defs>
  <g>
    <path class="st1" d="M223.3,159.7l-4.3-19.3h-23.9l-4.4,19.3h-24l25.8-106.2h30.2l25.6,106.2h-25.1ZM207.4,76.6h-.6l-9,45.1h18.2l-8.6-45.1Z"/>
    <path class="st1" d="M289.3,159.9c-3.3,1.5-7.1,2.2-11.4,2.2s-9.4-1-13.2-3.1c-3.8-2-7-4.9-9.6-8.6-2.6-3.7-4.6-8.1-5.9-13.2s-2-10.7-2-16.8.7-11.7,2.1-16.7c1.4-5,3.4-9.4,6-13.1,2.6-3.7,5.8-6.6,9.7-8.6,3.8-2,8.3-3.1,13.3-3.1s8.2.8,11.4,2.4c3.2,1.6,5.7,3.4,7.5,5.4l-9.5,18.3c-.9-1.4-2-2.5-3.3-3.3-1.3-.8-2.8-1.2-4.4-1.2-2.9,0-5.3,1.8-7.3,5.2-2,3.5-2.9,8.4-2.9,14.7s.9,11.2,2.9,14.6c1.9,3.5,4.5,5.2,7.8,5.2s3.2-.4,4.4-1.3c1.2-.8,2.3-2,3.1-3.4l9.5,18.2c-2.1,2.6-4.8,4.7-8.1,6.2Z"/>
    <path class="st1" d="M335,150c-1,3.5-3,6.3-5.9,8.5-3,2.1-6.8,3.2-11.5,3.2s-4.7-.4-7.1-1.2-4.6-2.1-6.6-4c-2-1.8-3.7-4.3-4.9-7.4-1.3-3-2-6.8-2-11.3s1-9.8,2.9-13.3c1.9-3.5,4.5-6.3,7.6-8.4,3.1-2.1,6.7-3.6,10.7-4.4,4-.8,8-1.3,12.1-1.3h3v-1.2c0-3.8-.9-6.5-2.6-8.2-1.8-1.7-4.1-2.5-7-2.5s-5.5.7-7.9,1.9c-2.4,1.3-4.4,3-6.1,5l-10.3-14.4c3.2-3.8,7.2-6.8,11.9-8.9,4.7-2.1,9.5-3.1,14.2-3.1s9.8.8,13.5,2.4c3.7,1.6,6.7,4,9,7.1,2.3,3.1,3.9,6.9,5,11.3,1,4.5,1.5,9.6,1.5,15.4v44.7h-19.4v-9.8h-.3ZM334.2,125.5h-4.2c-1.7,0-3.4.2-4.9.5-1.6.3-3,.9-4.2,1.7-1.2.9-2.2,2-2.9,3.3-.7,1.3-1,3.1-1,5.2,0,3.1.7,5.4,2,6.8,1.4,1.5,3,2.2,4.9,2.2s3.4-.5,4.7-1.4c1.4-.9,2.4-2.1,3.2-3.5.8-1.4,1.4-3.1,1.8-5,.4-1.8.6-3.7.6-5.5v-4.4Z"/>
    <path class="st1" d="M404.5,159.7v-9.5h-.3c-1.1,3.2-2.9,6-5.5,8.3-2.6,2.3-6.2,3.5-11,3.5s-7.8-1.1-11-3.4c-3.3-2.2-6-5.3-8.2-9.2-2.2-3.8-3.9-8.4-5-13.6-1.2-5.2-1.7-10.7-1.7-16.6s.5-11.2,1.6-16.1c1.1-5,2.7-9.2,5-12.8,2.2-3.6,4.9-6.4,8.2-8.5,3.2-2,7-3.1,11.2-3.1s7.3,1,10.1,3c2.8,2,4.7,4.5,5.6,7.4h.4v-42.9h23.2v113.4h-22.6ZM404.9,120.4c0-3-.2-5.8-.6-8.3-.4-2.5-1-4.8-1.9-6.8-.9-2-1.9-3.5-3.1-4.6-1.3-1.1-2.7-1.6-4.4-1.6s-3.3.6-4.6,1.6c-1.3,1.1-2.3,2.6-3.1,4.6-.8,2-1.4,4.2-1.8,6.8-.4,2.5-.6,5.3-.6,8.3s.2,5.7.6,8.2c.4,2.6,1,4.9,1.8,6.8.8,1.9,1.8,3.5,3.1,4.6,1.2,1.1,2.8,1.7,4.6,1.7s3.2-.5,4.4-1.7c1.2-1.1,2.3-2.6,3.1-4.6.8-2,1.5-4.2,1.9-6.8.4-2.6.6-5.3.6-8.2Z"/>
    <path class="st1" d="M457.7,126.4c0,2.2.3,4.3.8,6.2.5,2,1.3,3.7,2.2,5.1.9,1.5,2,2.6,3.3,3.4,1.3.9,2.7,1.3,4.4,1.3,2.6,0,4.7-.8,6.3-2.5,1.6-1.7,2.9-3.7,3.8-6l17.2,9.8c-2.6,5.8-6.2,10.4-10.9,13.8s-10.4,5.1-17.3,5.1-8.9-.9-12.8-2.7c-4-1.8-7.4-4.5-10.4-8-3-3.5-5.2-7.9-6.9-13.1-1.6-5.2-2.5-11.2-2.5-18s.8-12.2,2.3-17.5c1.5-5.2,3.8-9.7,6.6-13.4,2.9-3.6,6.2-6.5,10.1-8.5,3.9-2,8.2-3,12.9-3s10,1,13.8,3.1c3.8,2.1,6.9,5,9.4,8.6,2.4,3.7,4.2,8,5.3,13.1,1.1,5.1,1.6,10.6,1.6,16.6v6.6h-39.3ZM475.4,111.1c0-4.2-.7-7.7-2-10.5-1.3-2.8-3.4-4.2-6.4-4.2s-3,.5-4.1,1.4c-1.2,1-2.1,2.2-2.9,3.6-.8,1.5-1.4,3.1-1.8,4.8-.4,1.8-.6,3.4-.6,4.9h17.9Z"/>
    <path class="st1" d="M527.7,81.3v11.1h.3c1-3.8,3.1-7.1,6.3-9.8,3.2-2.7,7.3-4.1,12.3-4.1s9.8,1.3,12.5,4c2.7,2.7,4.7,6,5.8,9.9h.3c.7-1.8,1.6-3.5,2.8-5.2,1.1-1.6,2.6-3.1,4.2-4.4,1.6-1.3,3.5-2.3,5.7-3.1,2.1-.8,4.6-1.2,7.3-1.2,4.5,0,8.1.9,10.9,2.8,2.8,1.9,4.9,4.3,6.4,7.4,1.5,3.1,2.5,6.7,3.1,10.6.5,4,.8,8.2.8,12.5v48h-23.2v-48.2c0-3.3-.5-6.2-1.5-8.7-1-2.5-2.9-3.8-5.7-3.8s-5.1,1.3-6.7,4c-1.6,2.7-2.3,6.1-2.3,10.4v46.2h-23.1v-48.2c0-3.3-.5-6.2-1.4-8.7-1-2.5-2.8-3.8-5.6-3.8s-5.1,1.3-6.7,4c-1.6,2.7-2.3,6.1-2.3,10.4v46.2h-23.1v-78.5h23Z"/>
    <path class="st1" d="M641.9,60c0,3.8-1.2,7-3.6,9.7-2.4,2.7-5.5,4-9.3,4s-6.9-1.3-9.3-4c-2.4-2.6-3.6-5.9-3.6-9.7s.3-3.7,1-5.3c.6-1.6,1.5-3.1,2.6-4.3,1.1-1.2,2.4-2.2,4-3,1.6-.8,3.3-1.1,5.2-1.1s3.6.4,5.2,1.1c1.6.8,2.9,1.8,4,3,1.1,1.3,2,2.7,2.6,4.3.6,1.7,1,3.4,1,5.3ZM617.1,159.7v-78.5h23.7v78.5h-23.7Z"/>
    <path class="st1" d="M690.3,159.9c-3.3,1.5-7.1,2.2-11.4,2.2s-9.4-1-13.2-3.1c-3.8-2-7-4.9-9.6-8.6-2.6-3.7-4.6-8.1-5.9-13.2-1.4-5.1-2-10.7-2-16.8s.7-11.7,2.1-16.7c1.4-5,3.4-9.4,6-13.1,2.6-3.7,5.8-6.6,9.7-8.6,3.8-2,8.3-3.1,13.3-3.1s8.2.8,11.4,2.4c3.2,1.6,5.7,3.4,7.5,5.4l-9.5,18.3c-.9-1.4-2-2.5-3.3-3.3-1.3-.8-2.8-1.2-4.4-1.2-2.9,0-5.3,1.8-7.3,5.2-2,3.5-2.9,8.4-2.9,14.7s.9,11.2,2.8,14.6c1.9,3.5,4.5,5.2,7.8,5.2s3.2-.4,4.4-1.3c1.2-.8,2.3-2,3.1-3.4l9.5,18.2c-2.1,2.6-4.8,4.7-8.1,6.2Z"/>
    <path class="st1" d="M735.9,150c-1,3.5-3,6.3-5.9,8.5-3,2.1-6.8,3.2-11.5,3.2s-4.7-.4-7-1.2c-2.4-.8-4.6-2.1-6.6-4-2-1.8-3.7-4.3-5-7.4-1.3-3-1.9-6.8-1.9-11.3s1-9.8,2.9-13.3c2-3.5,4.5-6.3,7.6-8.4,3.2-2.1,6.7-3.6,10.7-4.4,4-.8,8-1.3,12.1-1.3h3v-1.2c0-3.8-.9-6.5-2.6-8.2-1.8-1.7-4.1-2.5-7-2.5s-5.5.7-7.9,1.9c-2.4,1.3-4.4,3-6.1,5l-10.3-14.4c3.2-3.8,7.2-6.8,11.9-8.9,4.7-2.1,9.5-3.1,14.2-3.1s9.8.8,13.5,2.4c3.7,1.6,6.7,4,9,7.1,2.3,3.1,3.9,6.9,5,11.3,1,4.5,1.5,9.6,1.5,15.4v44.7h-19.3v-9.8h-.3ZM735.2,125.5h-4.2c-1.7,0-3.4.2-5,.5-1.6.3-3,.9-4.2,1.7-1.2.9-2.2,2-2.8,3.3-.7,1.3-1.1,3.1-1.1,5.2,0,3.1.7,5.4,2,6.8,1.3,1.5,3,2.2,4.9,2.2s3.4-.5,4.7-1.4c1.4-.9,2.4-2.1,3.2-3.5.8-1.4,1.4-3.1,1.8-5,.4-1.8.6-3.7.6-5.5v-4.4Z"/>
  </g>
  <g>
    <path class="st1" d="M847.1,160.5V57.9h-.3l-32.1,102.6h-4l-31.9-102.6h-.3v102.6h-3.3V54.3h5.8l31.6,102.3h.3l31.6-102.3h5.8v106.2h-3.3Z"/>
    <path class="st1" d="M902.2,160.5h-3.1c-.5-4.2-.8-13-.8-17.2h-.3c-2.7,13.2-9.6,19.2-18.3,19.2s-16.5-6.5-16.5-20.8c0-20.4,16.5-23.8,26.5-23.8h8.2v-5.7c0-16-6.2-23.4-15.5-23.4s-10.9,3.4-14.2,8.6l-2.2-2.1c3.6-5.8,10.5-9.4,16.5-9.4,11.7,0,18.8,8.4,18.8,26.5v31.8c0,5.5.4,12.4.9,16.5ZM898,120.7h-7.3c-10.8,0-24.1,3-24.1,20.8s7.5,17.8,13.5,17.8c14,0,18-17.5,18-31.6v-7Z"/>
    <path class="st1" d="M916.5,88h3.3c.3,4,.4,13.3.4,18h.5c2.8-14.1,9.1-19.5,16.3-19.5s1.2,0,1.8.1v3c-.5-.2-1.5-.2-1.8-.2-11.2,0-16.6,17.5-16.6,33.4v37.5h-3.3v-54.1c0-4.7-.3-14.2-.6-18.3Z"/>
    <path class="st1" d="M963.7,161.4c-9,0-10.6-7.2-10.6-16.8v-53.5h-9.8v-3h9.8v-21.3h3.3v21.3h13.2v3h-13.2v53.5c0,9.8,1.9,13.9,7.8,13.9s4.2-.5,5.7-1.3l.8,2.7c-2,.9-4.5,1.5-6.9,1.5Z"/>
  </g>
  <g>
    <path class="st1" d="M64.1,79l28.1,3.2-2,37.2c-.8,15.5-13.4,21.8-17.1,23.4-5.5,2.3-11.9,4.6-11.9,4.6l-.8.3-.7-.4c0,0-6-3.4-11-6.6-3.3-2.1-13.9-9.9-13.1-24.5l1.9-35.1,26.7-2.1M60.5,145.6s6.3-2.3,11.8-4.6c4.9-2.1,15.2-8.1,15.9-21.7l1.9-35.5-26.1-2.9-24.9,1.9-1.8,33.5c-.7,12.8,7.9,20,12.3,22.8,5,3.2,10.9,6.5,10.9,6.5M64.2,77.5h-.1s-26.7,2.2-26.7,2.2h-1.3c0,.1-1.9,36.4-1.9,36.4-.8,15.4,10.3,23.7,13.8,25.9,3.7,2.3,7.8,4.7,9.8,5.9.4.2.8.4,1,.6h0s.2.2.2.2l.7.4.6.3.6-.2.8-.3h0c.5-.1,1.5-.5,3.9-1.4,2.1-.8,5.1-2,8.1-3.2h0s0,0,0,0c2.1-.9,6.3-3,10.1-6.8,2.2-2.2,4-4.7,5.3-7.4,1.6-3.2,2.5-6.8,2.7-10.6l2.1-38.7-1.4-.2-28.1-3.1h-.1Z"/>
    <path class="st0" d="M55.3,113.6c0,.3-.1.5-.2.8,0,.2-.3-.2-.7-.4-.2-.1-.6-.3-1.1-.4-2.6-.9-6.2.7-6.8,3.5-.3,1.4.1,3.3,1.9,3.7,1.8.4,2.7-1.2,2.8-1.9.3-1.3-.7-2.1-1.1-2.2s-.4,0-.7.2c-.3.2-.4.4-.2.6.2.2.3.6,0,.8-.2.2-.5,0-.8-.4-.3-.4,0-1.2.3-1.5s.8-.7,1.7-.5,2.1,1.5,1.7,3.2c-.6,2.7-2.9,3-3.8,2.8s-3.6-1-2.8-5c.9-4.2,6.6-5.2,9-3.7.2.1.5.4.6.6h0ZM82.7,109.2c-.5-1.2-2.1-1.7-3.2-1.7-.2,0-1.2.2-1.3.1.3-.6.7-1.2.1-1.7,0,0-.2-.1-.3-.2-.1,0-.3-.1-.4-.2h-.2c-.1,0-.3,0-.5,0h-.5c-2.1.4-4.2,2.7-5.5,4.2-.1.1-.6.8-.7.8,0,0-.1,0-.1,0,0,0,0-.2,0-.3,0-.2,0-.3.1-.4.1-.4.4-1.5.2-1.9-.2-.4-.8-.3-1.1-.2-1.3.4-2.7,2.3-3.3,3.4-1.3,2.2-2,4.4-2.3,6.9,0,.2,0,.7-.3.7-.2,0-.3-1-.3-1.3-.3-1.2-1.1-1.5-1.9-.5-1.1,1.4-1.4,3.4-.9,5.2.5,1.9,2.3,3.2,2.5,5.2,0,.4,0,.9,0,1.4,0,0,0,0,0,0,0,0,0,0,0,.1.3,4.6,2.8,7.7,3.6,8.3.6.5.3.8-.5.3-.9-.5-6.2-2.7-7-9.1-.5-4.2.5-5-1-10.8,0-.2-.4-1.5-.6-1.7-.2-.2-.3.6-.4.8,0,.3.3,1.6.4,2.1.9,3.5.4,7.5.4,8.3,0,.8-.4,1.5-.8.6-.4-.9-1.8-5.4-.8-10s2.8-10.5,3.1-11.2c.3-.7.8-2.3,1.4-2.2h0c.5,0,.9.3,1.5.4.2,0,.4,0,.5-.2-.8-.8-1.3-1.8-1.6-3,0,0-.2,0-.3.2-.4.7-.4,1.3-.5,1.6,0,.1,0,.2-.1.3,0,0-.1.2-.1.2,0,0,0,.1-.1.2,0,0,0,0,0,0-.2.3-.4.5-.5.8-.2.3-.5.2-.5-.3,0-.5-.3-4.3-.5-5.1-.2-.6,0-1.2,0-1.6,0-.3.1-.6,0-1.1,0-.2,0-.2-.2-.3-.8.9-1.6,1.6-2.7,2.1,0,.2.3.3.4.4.4,0,.7,0,1.1.1,0,0,0,0,.1,0,0,0,.2,0,.2,0,0,0,0,0,0,0,0,0,.1.1.2.2.2.5.9,4.9.1,8.7-.2.8-.3,1-.6.7-.2-.3-.5-.7-.7-.9,0,0,0,0,0,0,0,0,0-.1-.1-.2,0,0-.1-.2-.2-.3s0-.2-.2-.3c-.2-.4-.2-.8-.4-1.1,0,0-.2-.1-.3-.2-.4,1.9-1.1,3-1.2,3.2.1.2.4.1.5,0,.5-.2.7-.6,1.2-.6,0,0,.2,0,.2,0,.4.3.6.6.7.9,0,.3.2.6,0,1.3-.2.8-1.1,4-1.6,6.2-2.5,11.4,4.1,20.5,12.2,22.2,3.3.7,6-1.2,6.5-1.6.5-.5.3-1.1-.3-.6-.6.5-2.1,1-3.3.9-1.8-.1-1.9-.3-2.5-.7-.2-.1-1-.8-1.8-1.9-1.5-2.1-2.1-4.6-1.9-7.1h0c.2-2.6,1.2-6.4,4-10.4,2.8-4,8.7-7.7,9.3-7.9.5-.2.5.1.2.4-2.6,2-10.5,7.2-11.7,16.2,1.3.6,2.8.3,4-.3,1.2-.5,3.2-1.8,3.8-3,.1-.3.3-.7.2-1.1,0-.2-.5-.3-.8-.4-.4,0-1.2,0-.9-.6.2-.4.9-1.1,1.2-1.4.9-.8,2.1-1.5,3.2-2.1.9-.4,1.9-.6,2.7-1.3.7-.8.7-1.6,0-2.3-.4-.3-.9-.5-1-1,0-.4.9-.9,1.3-1.1.8-.4,2.2-.4,2.8-1.1,0,0,.1-.1.2-.2.1-.2.2-.3.2-.5h0c0-.2,0-.4,0-.6,0-.1,0-.2,0-.4h0ZM49.1,89.8c1.5.9,2.9,1,2.9,1,.1,0,.1.2,0,.2-.2,0-1.7,0-3.4-.9-.5-.3-.9-.6-1.2-.9,0,.4,0,.8,0,1.1.2.3.6,1,1.9,1.4,1.7.5,3.1.1,3.1.1.1,0,.2.1,0,.2-.2,0-1.7.4-3.5,0-.6-.1-1-.3-1.4-.6,0,.4.2.7.3,1,.3.3.9.7,2,.8,1.7,0,3.1-.6,3.1-.6.1,0,.2,0,0,.2-.1,0-1.6.8-3.4.9-.4,0-.7,0-1,0,.2.3.5.5.9.7,0,0,.1,0,.2,0,1.1,0,2.5,0,4-.8,2.7-1.4,3.3-3.6,3.5-4.4,0-.2,0-.3,0-.4-2-4.3-4.9-4.3-7.4-4.4-.5,0-.6.1-.9.5-.5.6-1.1,1.8-1.3,3.1.1.4.4,1.1,1.4,1.7h0ZM56.4,97.3c-1.7,1.2-3.5,1.7-5.4.9-1.1-.5-1.5-1.8-1.1-2.9,0,0,.1-.2.2-.2h.2s0,0,0,0c.2,0,.5,0,.7,0h0c1.2,0,2.8-.3,4.7-2,1.4-1.2,1.9-2.6,2.1-3.5,0-.1.1-.2.2-.2.4,0,1.2.3,1.5,1.1.9,2.5-1.2,5.3-3.2,6.7h0ZM51.1,96.4c0-.3-.1-.5-.4-.5s-.5.2-.5.4.1.5.4.5.5-.2.5-.4ZM51.9,97.4c0-.2-.1-.4-.3-.4s-.4.1-.4.4.1.4.3.4.4-.1.4-.4ZM52.6,96.3c0-.2-.1-.5-.4-.5s-.5.2-.5.4.1.5.4.5.5-.2.5-.4ZM53.3,97.2c0-.2-.3-.3-.5-.2-.2,0-.3.3-.2.6s.3.3.5.2.3-.3.2-.6ZM53.9,95.7c0-.2-.3-.3-.5-.2-.2,0-.3.3-.2.5s.3.3.5.2c.2,0,.3-.3.2-.5ZM54.7,96.8c0-.2-.3-.3-.5-.2-.2,0-.3.3-.2.6,0,.2.3.3.5.2.2,0,.3-.3.2-.6ZM55.3,95.9c0-.2-.1-.4-.3-.4s-.4.1-.4.4.1.4.3.4.4-.1.4-.4ZM44,105.3c1.7,0,3-.7,3-.7,0,0,.2,0,0,.2-.1,0-1.5.9-3.3,1-.6,0-1.1,0-1.4-.1.2.3.3.7.5,1,.3.2,1,.6,2.3.2,1.7-.5,2.7-1.5,2.7-1.5,0,0,.2,0,.1.1s-1.3,1.3-3,1.9c-.6.2-1.1.3-1.4.3.2.3.5.5.8.7.4.1,1.1.1,2.1-.4,1.5-.9,2.4-2.1,2.4-2.1,0-.1.2,0,.1.1,0,.1-1,1.5-2.5,2.5-.3.2-.6.4-.9.5.3.1.7.2,1.1.2,0,0,.2,0,.2,0,1-.5,2.1-1.3,3-2.8,1.6-2.6,1.1-4.8.8-5.6,0-.1-.1-.3-.3-.3-3.9-2.6-6.3-1.1-8.5.1-.4.2-.5.4-.6.9-.2.8,0,2.1.4,3.3.3.3.9.7,2.1.7h0ZM54,107.9c-.8,1.9-2.2,3.3-4.2,3.6-1.2.2-2.2-.7-2.4-1.8,0,0,0-.2,0-.3,0,0,.1,0,.2,0h0c.2-.1.4-.2.6-.4,0,0,0,0,0,0,1-.6,2.3-1.7,3.1-4.1.6-1.7.3-3.2,0-4.1,0,0,0-.2.1-.2.4-.1,1.2-.4,1.9.1,2.1,1.6,1.6,5.1.6,7.3h0ZM49.1,109.8c0-.2-.4-.3-.6-.2s-.3.4-.2.6.4.3.6.2.3-.4.2-.6ZM50.3,110.3c0-.2-.3-.3-.5-.2s-.3.3-.2.5.3.3.5.2.3-.3.2-.5h0ZM50.3,109c0-.2-.3-.3-.6-.2s-.3.4-.2.6.3.3.6.2.3-.4.2-.6ZM51.4,109.4c-.2-.1-.4,0-.6.1-.1.2,0,.5,0,.6s.4,0,.6-.1,0-.5,0-.6ZM51.1,107.8c-.2-.1-.4,0-.5.1-.1.2,0,.4,0,.6s.4,0,.5-.1c.1-.2,0-.4,0-.6ZM52.3,108.4c-.2-.1-.4,0-.6.1-.1.2,0,.5,0,.6.2.1.4,0,.6-.1.1-.2,0-.5,0-.6ZM52.4,107.2c0-.2-.3-.3-.5-.2s-.3.3-.2.5.3.3.5.2.3-.3.2-.5ZM75.3,97.9c.3-1.4.4-2.8.1-3.6-.2-.5-.2-.7-.7-.9-2.5-.9-5.3-2.2-9.3,1.1-.1.1-.2.2-.2.4-.2.8-.5,3.2,1.4,5.7,1.1,1.4,2.4,2.2,3.5,2.6,0,0,.2,0,.3,0,.4,0,.8-.2,1.2-.3-.3,0-.7-.2-1.1-.4-1.8-.9-2.9-2.2-3-2.3-.1-.1,0-.2.1-.1,0,0,1,1.2,2.8,1.9,1.2.5,2,.3,2.4.2.3-.3.6-.5.8-.8-.4,0-1,0-1.6,0-1.9-.4-3.3-1.5-3.4-1.6-.1-.1,0-.2.1-.2,0,0,1.3.9,3.1,1.2,1.4.2,2.3-.3,2.6-.5.2-.4.4-.7.5-1.1-.4.2-.9.3-1.6.4-2,.1-3.6-.5-3.8-.6-.2,0,0-.2,0-.2,0,0,1.5.6,3.4.3,1.3-.2,2-.7,2.3-1.1h0ZM62.4,95.2c.7-.7,1.6-.5,2-.4.1,0,.2.1.1.2-.2,1-.4,2.5.4,4.3,1.1,2.4,2.5,3.4,3.7,3.9,0,0,0,0,0,0,.3.1.5.2.7.3h0c0,0,.1,0,.2,0,0,0,.1.2.1.3,0,1.3-1.1,2.3-2.4,2.2-2.2-.1-3.7-1.4-4.8-3.3-1.2-2.1-2.1-5.7,0-7.7h0ZM68.3,105c.2,0,.5,0,.6-.3s0-.5-.3-.6-.5,0-.6.3,0,.5.3.6ZM67,105.5c.2,0,.5,0,.5-.3s0-.5-.3-.5-.5,0-.5.3,0,.5.3.5ZM66.9,104.2c.2,0,.5,0,.6-.3s0-.5-.3-.6-.5,0-.6.3,0,.5.3.6ZM65.4,104.8c.2.2.4.2.6,0s.2-.4,0-.6c-.2-.2-.4-.2-.6,0s-.2.4,0,.6ZM65.5,103.1c.2.2.4.2.6,0s.2-.4,0-.6-.4-.2-.6,0-.2.4,0,.6ZM64.3,103.9c.2.2.4.2.6,0,.2-.2.2-.4,0-.6-.2-.2-.4-.2-.6,0-.2.2-.2.4,0,.6ZM64.4,102.6c.2,0,.4,0,.5-.3s0-.5-.3-.5-.4,0-.5.3c0,.2,0,.5.3.5Z"/>
  </g>
  <path class="st1" d="M125.1,159.2l-8.6,13.4c-.2.2-.2,1.1,0,1.1h.8c0,0,9.5-12.3,9.5-12.3l13.2,6.8c.2.1,1,.2,1.1,0s-.2-1-.5-1.2l-12.9-8.1-2-113.2,12.3-3.5,9.6,131.2-35.1,9.2-103.7-9.8,9.5-128h19.7c0-10.8,2.5-24.2,9.9-32.2,4.3-4.8,10.2-6.9,16.6-6.4,18.7,1.4,17.6,24.9,17.4,38.8h17.8c.8-8.9,0-19.2-4.8-26.9-3.3-5.2-9.1-7.1-14.9-5.3l-3.5-4.5c7.9-2.9,16.4-1.5,21.8,5.5,6.5,8.5,7.5,21,6.9,31.5,6.1,0,12.1,0,18,1.1l2,113.1ZM67.6,17c1.9,1.9,2.8,3.6,3.4,5.6-2.1,7.3-2.8,14.4-3.1,22.2h7.4c0-8.6,1-23.6-5.6-29.6s-12-3.2-16.4,1.2c-6.5,6.8-8.8,19.4-8.5,28.3h17.8c.7-9,.9-19.4,5.2-27.8ZM75.2,56.9l-.3-6.7h-29.6c-.3,1.6.5,4.1,2.1,4.7,2.8-1.3,5.6-1.3,7.6,1.2s2,8.7-1.9,10.8-4.1.6-5.8-.7-1.7-3.1-2.6-4.7c-1.6-2.7-4.9-1.6-6.4-11.4h-15c0,0-8.8,117.8-8.8,117.8l95.2,9,1.4-126.5h-29.2c0,0,0,4.3,0,4.3,2.7-.6,4.8,0,6.3,2.2,2.2,3,1.9,7.3-1,9.8s-3.6,1.7-5.5.9-2.5-2.3-3.6-3.9-2.8-4-2.9-6.8Z"/>
</svg>