<?xml version="1.0" encoding="UTF-8"?>
<svg id="Layer_2" xmlns="http://www.w3.org/2000/svg" version="1.1" viewBox="0 0 157 188.5">
  <!-- Generator: Adobe Illustrator 30.1.0, SVG Export Plug-In . SVG Version: 2.1.1 Build 136)  -->
  <defs>
    <style>
      .st0 {
        fill: #fff;
      }

      .st1 {
        fill: #004680;
      }
    </style>
  </defs>
  <g>
    <path class="st1" d="M64.1,79l28.1,3.2-2,37.2c-.8,15.5-13.4,21.8-17.1,23.4-5.5,2.3-11.9,4.6-11.9,4.6l-.8.3-.7-.4s-6-3.4-11-6.6c-3.3-2.1-13.9-9.9-13.1-24.5l1.9-35.1,26.7-2.1M60.5,145.6s6.3-2.3,11.8-4.6c4.9-2.1,15.2-8.1,15.9-21.7l1.9-35.5-26.1-2.9-24.9,1.9-1.8,33.5c-.7,12.8,7.9,20,12.3,22.8,5,3.2,10.9,6.5,10.9,6.5M64.2,77.5h0l-26.7,2.2h-1.3c0,0-1.9,36.4-1.9,36.4-.8,15.4,10.3,23.7,13.8,25.9,3.7,2.3,7.8,4.7,9.8,5.9.4.2.8.4,1,.6h0l.2.2.7.4.6.3.6-.2.8-.3h0c.5-.1,1.5-.5,3.9-1.4,2.1-.8,5.1-2,8.1-3.2h0c2.1-.9,6.3-3,10.1-6.8,2.2-2.2,4-4.7,5.3-7.4,1.6-3.2,2.5-6.8,2.7-10.6l2.1-38.7-1.4-.2-28.1-3.1h-.2Z"/>
    <path class="st0" d="M55.3,113.6c0,.3,0,.5-.2.8,0,.2-.3-.2-.7-.4-.2,0-.6-.3-1.1-.4-2.6-.9-6.2.7-6.8,3.5s0,3.3,1.9,3.7c1.8.4,2.7-1.2,2.8-1.9.3-1.3-.7-2.1-1.1-2.2s-.4,0-.7.2-.4.4-.2.6.3.6,0,.8c-.2.2-.5,0-.8-.4s0-1.2.3-1.5.8-.7,1.7-.5,2.1,1.5,1.7,3.2c-.6,2.7-2.9,3-3.8,2.8s-3.6-1-2.8-5c.9-4.2,6.6-5.2,9-3.7.2,0,.5.4.6.6h0l.2-.2ZM82.7,109.2c-.5-1.2-2.1-1.7-3.2-1.7s-1.2.2-1.3,0c.3-.6.7-1.2,0-1.7,0,0-.2,0-.3-.2,0,0-.3,0-.4-.2h-1.2c-2.1.4-4.2,2.7-5.5,4.2,0,0-.6.8-.7.8h0v-.3c0-.2,0-.3,0-.4,0-.4.4-1.5.2-1.9-.2-.4-.8-.3-1.1-.2-1.3.4-2.7,2.3-3.3,3.4-1.3,2.2-2,4.4-2.3,6.9,0,.2,0,.7-.3.7s-.3-1-.3-1.3c-.3-1.2-1.1-1.5-1.9-.5-1.1,1.4-1.4,3.4-.9,5.2.5,1.9,2.3,3.2,2.5,5.2v1.4h0c.3,4.7,2.8,7.8,3.6,8.4.6.5.3.8-.5.3-.9-.5-6.2-2.7-7-9.1-.5-4.2.5-5-1-10.8,0-.2-.4-1.5-.6-1.7-.2-.2-.3.6-.4.8,0,.3.3,1.6.4,2.1.9,3.5.4,7.5.4,8.3s-.4,1.5-.8.6c-.4-.9-1.8-5.4-.8-10s2.8-10.5,3.1-11.2.8-2.3,1.4-2.2h0c.5,0,.9.3,1.5.4.2,0,.4,0,.5-.2-.8-.8-1.3-1.8-1.6-3,0,0-.2,0-.3.2-.4.7-.4,1.3-.5,1.6,0,0,0,.2,0,.3v.2c0,0,0,0-.2.2h0c-.2.3-.4.5-.5.8-.2.3-.5.2-.5-.3s-.3-4.3-.5-5.1c-.2-.6,0-1.2,0-1.6s0-.6,0-1.1q0-.2-.2-.3c-.8.9-1.6,1.6-2.7,2.1,0,.2.3.3.4.4.4,0,.7,0,1.1,0h.3s0,0,.2.2c.2.5.9,4.9,0,8.7-.2.8-.3,1-.6.7-.2-.3-.5-.7-.7-.9h0s0,0,0-.2c0,0,0-.2-.2-.3s0-.2-.2-.3c-.2-.4-.2-.8-.4-1.1,0,0-.2,0-.3-.2-.4,1.9-1.1,3-1.2,3.2,0,.2.4,0,.5,0,.5-.2.7-.6,1.2-.6h.2c.4.3.6.6.7.9,0,.3.2.6,0,1.3-.2.8-1.1,4-1.6,6.2-2.5,11.4,4.1,20.5,12.2,22.2,3.3.7,6-1.2,6.5-1.6.5-.5.3-1.1-.3-.6-.6.5-2.1,1-3.3.9-1.8-.1-1.9-.3-2.5-.7-.2-.1-1-.8-1.8-1.9-1.5-2.1-2.1-4.6-1.9-7.1h0c.2-2.6,1.2-6.4,4-10.4s8.7-7.7,9.3-7.9c.5-.2.5,0,.2.4-2.6,2-10.5,7.2-11.7,16.2,1.3.6,2.8.3,4-.3,1.2-.5,3.2-1.8,3.8-3,0-.3.3-.7.2-1.1,0-.2-.5-.3-.8-.4-.4,0-1.2,0-.9-.6.2-.4.9-1.1,1.2-1.4.9-.8,2.1-1.5,3.2-2.1.9-.4,1.9-.6,2.7-1.3.7-.8.7-1.6,0-2.3-.4-.3-.9-.5-1-1,0-.4.9-.9,1.3-1.1.8-.4,2.2-.4,2.8-1.1l.2-.2c0-.2.2-.3.2-.5h0v-1h0l.2.6ZM49.1,89.8c1.5.9,2.9,1,2.9,1,0,0,0,.2,0,.2-.2,0-1.7,0-3.4-.9-.5-.3-.9-.6-1.2-.9v1.1c.2.3.6,1,1.9,1.4,1.7.5,3.1,0,3.1,0,0,0,.2,0,0,.2-.2,0-1.7.4-3.5,0-.6,0-1-.3-1.4-.6,0,.4.2.7.3,1,.3.3.9.7,2,.8,1.7,0,3.1-.6,3.1-.6,0,0,.2,0,0,.2,0,0-1.6.8-3.4.9h-1c.2.3.5.5.9.7h.2c1.1,0,2.5,0,4-.8,2.7-1.4,3.3-3.6,3.5-4.4v-.4c-2-4.3-4.9-4.3-7.4-4.4-.5,0-.6,0-.9.5-.5.6-1.1,1.8-1.3,3.1,0,.4.4,1.1,1.4,1.7h.2ZM56.4,97.3c-1.7,1.2-3.5,1.7-5.4.9-1.1-.5-1.5-1.8-1.1-2.9,0,0,0-.2.2-.2h.9c1.2,0,2.8-.3,4.7-2,1.4-1.2,1.9-2.6,2.1-3.5,0,0,0-.2.2-.2.4,0,1.2.3,1.5,1.1.9,2.5-1.2,5.3-3.2,6.7h0ZM51.1,96.4c0-.3,0-.5-.4-.5s-.5.2-.5.4,0,.5.4.5.5-.2.5-.4ZM51.9,97.4c0-.2,0-.4-.3-.4s-.4,0-.4.4,0,.4.3.4.4,0,.4-.4ZM52.6,96.3c0-.2,0-.5-.4-.5s-.5.2-.5.4,0,.5.4.5.5-.2.5-.4ZM53.3,97.2c0-.2-.3-.3-.5-.2-.2,0-.3.3-.2.6s.3.3.5.2.3-.3.2-.6ZM53.9,95.7c0-.2-.3-.3-.5-.2-.2,0-.3.3-.2.5s.3.3.5.2c.2,0,.3-.3.2-.5ZM54.7,96.8c0-.2-.3-.3-.5-.2-.2,0-.3.3-.2.6,0,.2.3.3.5.2.2,0,.3-.3.2-.6ZM55.3,95.9c0-.2,0-.4-.3-.4s-.4,0-.4.4,0,.4.3.4.4,0,.4-.4ZM44,105.3c1.7,0,3-.7,3-.7,0,0,.2,0,0,.2,0,0-1.5.9-3.3,1-.6,0-1.1,0-1.4,0,.2.3.3.7.5,1,.3.2,1,.6,2.3.2,1.7-.5,2.7-1.5,2.7-1.5,0,0,.2,0,0,0s-1.3,1.3-3,1.9c-.6.2-1.1.3-1.4.3.2.3.5.5.8.7.4,0,1.1,0,2.1-.4,1.5-.9,2.4-2.1,2.4-2.1,0,0,.2,0,0,0,0,0-1,1.5-2.5,2.5-.3.2-.6.4-.9.5.3,0,.7.2,1.1.2h.2c1-.5,2.1-1.3,3-2.8,1.6-2.6,1.1-4.8.8-5.6,0,0,0-.3-.3-.3-3.9-2.6-6.3-1.1-8.5,0-.4.2-.5.4-.6.9-.2.8,0,2.1.4,3.3.3.3.9.7,2.1.7h0l.3-.2ZM54,107.9c-.8,1.9-2.2,3.3-4.2,3.6-1.2.2-2.2-.7-2.4-1.8v-.3h.2c.2,0,.4-.2.6-.4h0c1-.6,2.3-1.7,3.1-4.1.6-1.7.3-3.2,0-4.1,0,0,0-.2,0-.2.4,0,1.2-.4,1.9,0,2.1,1.6,1.6,5.1.6,7.3h.1ZM49.1,109.8c0-.2-.4-.3-.6-.2s-.3.4-.2.6.4.3.6.2.3-.4.2-.6ZM50.3,110.3c0-.2-.3-.3-.5-.2s-.3.3-.2.5.3.3.5.2.3-.3.2-.5h0ZM50.3,109c0-.2-.3-.3-.6-.2s-.3.4-.2.6.3.3.6.2.3-.4.2-.6ZM51.4,109.4c-.2,0-.4,0-.6,0,0,.2,0,.5,0,.6s.4,0,.6,0,0-.5,0-.6ZM51.1,107.8c-.2,0-.4,0-.5,0,0,.2,0,.4,0,.6s.4,0,.5,0c0-.2,0-.4,0-.6ZM52.3,108.4c-.2,0-.4,0-.6,0,0,.2,0,.5,0,.6.2,0,.4,0,.6,0,0-.2,0-.5,0-.6ZM52.4,107.2c0-.2-.3-.3-.5-.2s-.3.3-.2.5.3.3.5.2.3-.3.2-.5ZM75.3,97.9c.3-1.4.4-2.8,0-3.6-.2-.5-.2-.7-.7-.9-2.5-.9-5.3-2.2-9.3,1.1,0,0-.2.2-.2.4-.2.8-.5,3.2,1.4,5.7,1.1,1.4,2.4,2.2,3.5,2.6h.3c.4,0,.8-.2,1.2-.3-.3,0-.7-.2-1.1-.4-1.8-.9-2.9-2.2-3-2.3,0,0,0-.2,0,0,0,0,1,1.2,2.8,1.9,1.2.5,2,.3,2.4.2.3-.3.6-.5.8-.8h-1.6c-1.9-.4-3.3-1.5-3.4-1.6s0-.2,0-.2c0,0,1.3.9,3.1,1.2,1.4.2,2.3-.3,2.6-.5.2-.4.4-.7.5-1.1-.4.2-.9.3-1.6.4-2,0-3.6-.5-3.8-.6-.2,0,0-.2,0-.2,0,0,1.5.6,3.4.3,1.3-.2,2-.7,2.3-1.1h0ZM62.4,95.2c.7-.7,1.6-.5,2-.4,0,0,.2,0,0,.2-.2,1-.4,2.5.4,4.3,1.1,2.4,2.5,3.4,3.7,3.9h0c.3,0,.5.2.7.3h.2s0,.2,0,.3c0,1.3-1.1,2.3-2.4,2.2-2.2,0-3.7-1.4-4.8-3.3-1.2-2.1-2.1-5.7,0-7.7h0v.2ZM68.3,105c.2,0,.5,0,.6-.3s0-.5-.3-.6-.5,0-.6.3,0,.5.3.6ZM67,105.5c.2,0,.5,0,.5-.3s0-.5-.3-.5-.5,0-.5.3,0,.5.3.5ZM66.9,104.2c.2,0,.5,0,.6-.3s0-.5-.3-.6-.5,0-.6.3,0,.5.3.6ZM65.4,104.8c.2.2.4.2.6,0s.2-.4,0-.6-.4-.2-.6,0-.2.4,0,.6ZM65.5,103.1c.2.2.4.2.6,0s.2-.4,0-.6-.4-.2-.6,0-.2.4,0,.6ZM64.3,103.9c.2.2.4.2.6,0s.2-.4,0-.6-.4-.2-.6,0-.2.4,0,.6ZM64.4,102.6c.2,0,.4,0,.5-.3s0-.5-.3-.5-.4,0-.5.3c0,.2,0,.5.3.5Z"/>
  </g>
  <path class="st1" d="M125.1,159.2l-8.6,13.4c-.2.2-.2,1.1,0,1.1h.8l9.5-12.3,13.2,6.8c.2.1,1,.2,1.1,0s-.2-1-.5-1.2l-12.9-8.1-2-113.2,12.3-3.5,9.6,131.2-35.1,9.2-103.7-9.8L18.3,44.8h19.7c0-10.8,2.5-24.2,9.9-32.2,4.3-4.8,10.2-6.9,16.6-6.4,18.7,1.4,17.6,24.9,17.4,38.8h17.8c.8-8.9,0-19.2-4.8-26.9-3.3-5.2-9.1-7.1-14.9-5.3l-3.5-4.5c7.9-2.9,16.4-1.5,21.8,5.5,6.5,8.5,7.5,21,6.9,31.5,6.1,0,12.1,0,18,1.1l2,113.1v-.3ZM67.6,17c1.9,1.9,2.8,3.6,3.4,5.6-2.1,7.3-2.8,14.4-3.1,22.2h7.4c0-8.6,1-23.6-5.6-29.6s-12-3.2-16.4,1.2c-6.5,6.8-8.8,19.4-8.5,28.3h17.8c.7-9,.9-19.4,5.2-27.8h-.2ZM75.2,56.9l-.3-6.7h-29.6c-.3,1.6.5,4.1,2.1,4.7,2.8-1.3,5.6-1.3,7.6,1.2s2,8.7-1.9,10.8-4.1.6-5.8-.7-1.7-3.1-2.6-4.7c-1.6-2.7-4.9-1.6-6.4-11.4h-15l-8.8,117.8,95.2,9,1.4-126.5h-29.2v4.3c2.7-.6,4.8,0,6.3,2.2,2.2,3,1.9,7.3-1,9.8s-3.6,1.7-5.5.9-2.5-2.3-3.6-3.9-2.8-4-2.9-6.8h0Z"/>
</svg>